<svg xmlns="http://www.w3.org/2000/svg" viewBox="0 0 32 32"><defs><style>.cls-1{fill:none;stroke:#231815;stroke-miterlimit:10;stroke-width:2px;}.cls-2{fill:#dcdddd;}.cls-3{fill:#231815;}</style></defs><title>资源 12</title><g id="图层_2" data-name="图层 2"><g id="图层_1-2" data-name="图层 1"><line class="cls-1" x1="2" y1="2.09" x2="2" y2="30"/><polyline class="cls-1" points="30 31 1 31 1 2"/><rect class="cls-2" x="2.5" y="0.5" width="29" height="29"/><path class="cls-3" d="M31,1V29H3V1H31m1-1H2V30H32V0Z"/><path class="cls-3" d="M9.81,10.86a7.06,7.06,0,0,1-1.56,1,3.63,3.63,0,0,1-1.46.32,2.85,2.85,0,0,1-1.5-.37,2.38,2.38,0,0,1-1-1.07A3.82,3.82,0,0,1,4,9.12a5,5,0,0,1,.7-2.44A9,9,0,0,1,6.57,4.35,10.47,10.47,0,0,1,9.14,2.64,6.34,6.34,0,0,1,11.84,2C13.24,2,14,2.55,14,3.64a2.24,2.24,0,0,1-.39,1.24,2.85,2.85,0,0,1-1,1,2.71,2.71,0,0,1-1.36.36c-.19,0-.29-.06-.29-.18a.7.7,0,0,1,.1-.25,3.59,3.59,0,0,0,.34-.86,5.52,5.52,0,0,0,.14-1c0-.42-.06-.63-.17-.63a2.23,2.23,0,0,0-1.1.5A5.07,5.07,0,0,0,9,4.88,6.37,6.37,0,0,0,8.27,6.1a7.3,7.3,0,0,0-.55,1.42,5.08,5.08,0,0,0-.19,1.33,1.56,1.56,0,0,0,.27.94.88.88,0,0,0,.72.36q.77,0,1.71-1.71c.21-.32.34-.52.41-.61a.91.91,0,0,1,.3-.23,5.75,5.75,0,0,1,1.3-.52,5,5,0,0,1,1.23-.23c.34,0,.51.15.51.46,0,0,0,.13-.05.32a25.5,25.5,0,0,1-1.44,4,8.83,8.83,0,0,1-1.64,2.57,2.73,2.73,0,0,1-1.08.58A4.91,4.91,0,0,1,8.3,15,4.23,4.23,0,0,1,7,14.81a3.42,3.42,0,0,1-1-.47c-.27-.19-.41-.39-.41-.57a.68.68,0,0,1,.23-.43,3.22,3.22,0,0,1,.64-.47,2.16,2.16,0,0,1,.84-.38c.15,0,.35.14.61.42a5,5,0,0,0,1,.81,9.75,9.75,0,0,0,.57-1.49A8.87,8.87,0,0,0,9.81,10.86Z"/><path class="cls-3" d="M17.52,10.15c.06.3.28.45.65.45A3.31,3.31,0,0,0,19.8,10a2,2,0,0,1,.79-.38,1,1,0,0,1,.47.12c.14.07.21.16.21.24s-.08.21-.24.35a8,8,0,0,1-1,.77,7.83,7.83,0,0,1-1.11.62,6.64,6.64,0,0,1-1.07.4,4,4,0,0,1-.95.14,2.44,2.44,0,0,1-1.67-.53,1.75,1.75,0,0,1-.63-1.41,4.27,4.27,0,0,1,.33-1.53,6.8,6.8,0,0,1,.89-1.6,5.78,5.78,0,0,1,1.62-1.45A4.53,4.53,0,0,1,19.69,5a1.67,1.67,0,0,1,1.24.44,1.61,1.61,0,0,1,.44,1.21A2.62,2.62,0,0,1,21,7.91,4.79,4.79,0,0,1,20,9.17a6,6,0,0,1-1.11.78,2.19,2.19,0,0,1-1,.29A.92.92,0,0,1,17.52,10.15Zm0-.23a2.72,2.72,0,0,0,.58-.46,3.76,3.76,0,0,0,.69-1.11,5.23,5.23,0,0,0,.3-.92,4.56,4.56,0,0,0,.1-.94c0-.27-.06-.41-.19-.41s-.45.35-.82,1a9.66,9.66,0,0,0-.53,1.26,3.78,3.78,0,0,0-.2,1.08A2,2,0,0,0,17.51,9.92Z"/><path class="cls-3" d="M25.51,8.31l.5-.52c.51-.51.92-.88,1.21-1.12a4,4,0,0,1,.8-.54A1.72,1.72,0,0,1,28.75,6a1,1,0,0,1,.83.28,1.55,1.55,0,0,1,.24,1c0,.2,0,.48-.06.86a10.16,10.16,0,0,0-.1,1.41,7.53,7.53,0,0,0,.08,1.2,3.13,3.13,0,0,0,.18.57,1.86,1.86,0,0,1,.08.36.22.22,0,0,1-.1.19,2.46,2.46,0,0,1-.69.35,2.2,2.2,0,0,1-.71.15,1.44,1.44,0,0,1-.87-.29,1.86,1.86,0,0,1-.6-.81,3,3,0,0,1-.21-1.16,5.81,5.81,0,0,1,.1-1l0,0-.58.56-.41.4c-.63.63-1.15,1.2-1.59,1.71l-.46.52a1,1,0,0,1-.7.28,1.12,1.12,0,0,1-.87-.36,1.3,1.3,0,0,1-.33-.92,5.13,5.13,0,0,1,.09-.86q.09-.49.24-1.08c.11-.38.23-.78.37-1.18a11.21,11.21,0,0,1,.47-1.16A3.94,3.94,0,0,1,24,5.5,1.34,1.34,0,0,1,25,5.17c.58,0,.87.33.87,1a9.38,9.38,0,0,1-.34,2.11Z"/><path class="cls-3" d="M9.7,21.82l-.1.41c0,.13-.06.25-.09.35s0,.18-.06.25,0,.15,0,.22a17,17,0,0,1-1.12,3.61,1.86,1.86,0,0,1-.58.57A4,4,0,0,1,5.8,28,1.07,1.07,0,0,1,5,27.66a1.15,1.15,0,0,1-.34-.85,13.36,13.36,0,0,1,.83-3.39c.17-.53.32-1,.46-1.37s.3-.83.5-1.32.41-1,.66-1.55.42-.93.53-1.16a17.57,17.57,0,0,1-2.45.18c-.79,0-1.18-.27-1.18-.8a2.19,2.19,0,0,1,.77-1.31,3.41,3.41,0,0,1,1-.72,2.65,2.65,0,0,1,1.07-.2l1.1,0c.47,0,1.12.05,2,.11l.26,0,.26,0a9.6,9.6,0,0,1,1.4.13,1.23,1.23,0,0,1,.58.29.73.73,0,0,1,.19.49,1.7,1.7,0,0,1-.12.61,1.08,1.08,0,0,1-.3.46,2.67,2.67,0,0,1-1.35.44l-.2,0-.2,0a.66.66,0,0,1,.24.5,5.2,5.2,0,0,1-.27,1.13c-.06.14-.2.62-.41,1.42l-.15.56Z"/><path class="cls-3" d="M18.4,20.92a16.84,16.84,0,0,0,.65-2.22,9,9,0,0,0,.26-1.77c0-.11,0-.17-.1-.17s-.28.22-.54.67A9.84,9.84,0,0,0,18,18.79c-.37,1-.66,1.87-.86,2.54A15.22,15.22,0,0,0,16.75,23a8,8,0,0,0-.12,1.39,2.13,2.13,0,0,0,.14.89.48.48,0,0,0,.45.28,2.14,2.14,0,0,0,1.18-.45,5,5,0,0,0,1.19-1.19c.27-.37.49-.56.64-.56s.3.16.3.46a3.48,3.48,0,0,1-.65,2,5.1,5.1,0,0,1-1.65,1.55,4,4,0,0,1-2.08.59A2.89,2.89,0,0,1,14,27.15a2.76,2.76,0,0,1-.82-2.08,8,8,0,0,1,.46-2.46,17,17,0,0,1,1.24-2.84,17.3,17.3,0,0,1,1.7-2.59,8.63,8.63,0,0,1,1.82-1.78,2.06,2.06,0,0,1,1.24-.4,1.57,1.57,0,0,1,.95.31,2,2,0,0,1,.65.88,3.31,3.31,0,0,1,.23,1.25,7.41,7.41,0,0,1-.59,2.87,7.52,7.52,0,0,1-1.65,2.44,4.83,4.83,0,0,1-1,.77,1.6,1.6,0,0,1-.81.28c-.22,0-.34-.08-.34-.25a1.47,1.47,0,0,1,.25-.53,10.44,10.44,0,0,0,.79-1.56l.09-.22C18.32,21.16,18.36,21.06,18.4,20.92Z"/><path class="cls-3" d="M25.57,25.31a.66.66,0,0,0,.75.56,3.55,3.55,0,0,0,1.87-.82,2.21,2.21,0,0,1,.91-.48,1,1,0,0,1,.53.15c.17.1.26.2.26.31a.78.78,0,0,1-.28.44,9.12,9.12,0,0,1-1.18,1,9.69,9.69,0,0,1-1.28.79,7,7,0,0,1-1.23.49,3.62,3.62,0,0,1-1.09.19,2.76,2.76,0,0,1-1.93-.67,2.33,2.33,0,0,1-.72-1.79,5.87,5.87,0,0,1,.38-1.92,8.67,8.67,0,0,1,1-2,6.75,6.75,0,0,1,1.86-1.83,4.9,4.9,0,0,1,2.62-.88,1.86,1.86,0,0,1,1.42.56A2.18,2.18,0,0,1,30,20.9a3.57,3.57,0,0,1-.41,1.58,5.6,5.6,0,0,1-1.21,1.59,6.41,6.41,0,0,1-1.28,1,2.31,2.31,0,0,1-1.1.36A1,1,0,0,1,25.57,25.31Zm0-.3a2.64,2.64,0,0,0,.67-.58A4.53,4.53,0,0,0,27,23a6.08,6.08,0,0,0,.35-1.16,6.4,6.4,0,0,0,.12-1.19c0-.34-.07-.51-.22-.51s-.52.44-.94,1.32a10.37,10.37,0,0,0-.61,1.59,4.82,4.82,0,0,0-.24,1.36A3.08,3.08,0,0,0,25.55,25Z"/><line class="cls-1" x1="30" y1="30" x2="2" y2="30"/></g></g></svg>